<svg width="120" height="66" viewBox="0 0 120 66" fill="none" xmlns="http://www.w3.org/2000/svg">
<path d="M87.1844 49.3089C84.4721 49.3089 82.2658 47.1192 82.2658 44.4295C82.2658 41.7399 84.4721 39.552 87.1844 39.552C89.8971 39.552 92.1033 41.7394 92.1033 44.4295C92.1033 47.1196 89.8971 49.3089 87.1844 49.3089ZM32.8156 49.3089C30.1034 49.3089 27.8971 47.1192 27.8971 44.4295C27.8971 41.7399 30.1029 39.552 32.8156 39.552C35.5279 39.552 37.7342 41.7394 37.7342 44.4295C37.7342 47.1196 35.5284 49.3089 32.8156 49.3089ZM88.9486 19.9256L98.7794 3.04122C99.05 2.57525 99.1231 2.02186 98.9828 1.50246C98.8424 0.98307 98.5 0.5401 98.0307 0.27075C97.5608 0.00251789 97.0028 -0.069961 96.4791 0.0692097C95.9554 0.20838 95.5087 0.547838 95.237 1.01314L85.2833 18.111C77.6709 14.6664 69.1222 12.7472 60 12.7472C50.8778 12.7472 42.3291 14.6664 34.7172 18.111L24.763 1.01314C24.4913 0.547838 24.0446 0.20838 23.5209 0.0692097C22.9972 -0.069961 22.4392 0.00251789 21.9693 0.27075C21.4997 0.539848 21.1571 0.982822 21.0167 1.50232C20.8763 2.02182 20.9497 2.57533 21.2206 3.04122L31.0514 19.9256C14.1705 29.0303 2.62507 45.9777 0.936035 66H119.064C117.374 45.9781 105.828 29.0303 88.9486 19.9252" fill="#3DDB85"/>
</svg>
