<svg width="84" height="66" viewBox="0 0 84 66" fill="none" xmlns="http://www.w3.org/2000/svg">
<path fill-rule="evenodd" clip-rule="evenodd" d="M17.5796 0C12.8125 0 9.28509 4.1377 9.44304 8.62493C9.59464 12.9359 9.39768 18.5193 7.98031 23.0726C6.55789 27.6386 4.15394 30.5321 0.226562 30.9035V35.0965C4.15394 35.4687 6.55789 38.3607 7.98015 42.9274C9.39768 47.4807 9.59447 53.0641 9.44288 57.3751C9.28492 61.8616 12.8124 66 17.5803 66H66.4272C71.1943 66 74.7211 61.8623 74.5632 57.3751C74.4116 53.0641 74.6085 47.4807 76.0259 42.9274C77.4483 38.3607 79.8464 35.4676 83.7739 35.0965V30.9035C79.8465 30.5313 77.4485 27.6393 76.0259 23.0726C74.6084 18.52 74.4116 12.9359 74.5632 8.62493C74.7211 4.13835 71.1943 0 66.4272 0H17.579H17.5796ZM56.8689 40.6273C56.8689 46.806 52.2214 50.5533 44.5088 50.5533H31.3798C31.0042 50.5533 30.644 50.4053 30.3785 50.142C30.1129 49.8786 29.9637 49.5214 29.9637 49.149V16.8511C29.9637 16.4787 30.1129 16.1215 30.3785 15.8582C30.644 15.5948 31.0042 15.4469 31.3798 15.4469H44.4341C50.8651 15.4469 55.0857 18.9014 55.0857 24.2052C55.0857 27.9278 52.2464 31.2604 48.6292 31.8443V32.0385C53.5533 32.5741 56.8689 35.9561 56.8689 40.6273ZM43.0772 19.8984H35.5912V30.3842H41.8963C46.7704 30.3842 49.458 28.4378 49.458 24.9589C49.4575 21.6986 47.1469 19.8984 43.0772 19.8984ZM35.5912 34.5447V46.1003H43.3527C48.4275 46.1003 51.1156 44.081 51.1156 40.286C51.1156 36.4911 48.3521 34.5441 43.0263 34.5441H35.5912V34.5447Z" fill="#7952B3"/>
</svg>
