<svg width="94" height="66" viewBox="0 0 94 66" fill="none" xmlns="http://www.w3.org/2000/svg">
<path d="M92.4598 24.9153C92.2082 24.7171 89.86 22.9588 84.9078 22.9588C83.6001 22.9645 82.2952 23.0757 81.0058 23.2914C80.0473 16.7766 74.6159 13.6003 74.3724 13.4578L73.0425 12.6974L72.1679 13.9489C71.0727 15.6301 70.2731 17.4834 69.8037 19.4301C68.917 23.1489 69.4562 26.6419 71.3612 29.6281C69.0609 30.8993 65.3707 31.2123 64.624 31.2399H3.52878C1.93299 31.2421 0.638081 32.521 0.629385 34.1033C0.558123 39.411 1.46492 44.687 3.30513 49.6716C5.40974 55.1449 8.54083 59.1765 12.6144 61.6438C17.1792 64.4161 24.5954 66.0003 33.0021 66.0003C36.7998 66.0121 40.5904 65.6713 44.3242 64.9825C49.5145 64.0374 54.5089 62.2384 59.1007 59.6596C62.8843 57.4868 66.2896 54.7227 69.1848 51.4735C74.0251 46.0398 76.9087 39.9883 79.0532 34.6102H79.9078C85.2074 34.6102 88.4663 32.5072 90.2634 30.7449C91.4577 29.6209 92.3901 28.2517 92.9951 26.733L93.3745 25.6321L92.4598 24.9153Z" fill="#2496ED"/>
<path d="M9.19182 29.4659H17.3788C17.7737 29.4659 18.0937 29.1485 18.0937 28.7571V21.5253C18.0959 21.1337 17.7776 20.8146 17.3829 20.8124H9.19182C8.79696 20.8124 8.477 21.1299 8.477 21.5213V28.7569C8.477 29.1485 8.79696 29.4659 9.19182 29.4659Z" fill="#2496ED"/>
<path d="M20.4739 29.4659H28.661C29.0558 29.4659 29.3758 29.1485 29.3758 28.7571V21.5253C29.378 21.1337 29.0597 20.8146 28.6649 20.8124H20.4738C20.0768 20.8124 19.755 21.1315 19.755 21.5253V28.7569C19.7573 29.1492 20.0784 29.4659 20.4739 29.4659Z" fill="#2496ED"/>
<path d="M31.9279 29.4659H40.1149C40.5098 29.4659 40.8297 29.1485 40.8297 28.7571V21.5253C40.832 21.1337 40.5137 20.8146 40.1188 20.8124H31.9278C31.5329 20.8124 31.213 21.1299 31.213 21.5213V28.7569C31.2131 29.1485 31.5332 29.4659 31.9279 29.4659Z" fill="#2496ED"/>
<path d="M43.2458 29.4659H51.4328C51.8284 29.4659 52.1495 29.1493 52.1517 28.7571V21.5253C52.1517 21.1315 51.8299 20.8124 51.4328 20.8124H43.2458C42.851 20.8124 42.531 21.1299 42.531 21.5213V28.7569C42.531 29.1485 42.8511 29.4659 43.2458 29.4659Z" fill="#2496ED"/>
<path d="M20.4738 19.0628H28.6608C29.0562 19.0606 29.3756 18.742 29.3756 18.3499V11.1183C29.3756 10.7267 29.0556 10.4094 28.6608 10.4094H20.4738C20.0784 10.4094 19.7572 10.7261 19.755 11.1183V18.3499C19.7572 18.7428 20.0777 19.0606 20.4738 19.0628Z" fill="#2496ED"/>
<path d="M31.9278 19.0628H40.1148C40.5102 19.0606 40.8296 18.742 40.8296 18.3499V11.1183C40.8296 10.7267 40.5095 10.4094 40.1148 10.4094H31.9278C31.5329 10.4094 31.213 10.7269 31.213 11.1183V18.3499C31.213 18.742 31.5324 19.0606 31.9278 19.0628Z" fill="#2496ED"/>
<path d="M43.2458 19.0628H51.4328C51.829 19.0606 52.1495 18.7428 52.1517 18.3499V11.1183C52.1495 10.7261 51.8284 10.4094 51.4328 10.4094H43.2458C42.851 10.4094 42.531 10.7269 42.531 11.1183V18.3499C42.531 18.742 42.8505 19.0606 43.2458 19.0628Z" fill="#2496ED"/>
<path d="M43.2458 8.65447H51.4328C51.8284 8.65447 52.1495 8.33769 52.1517 7.94561V0.709841C52.1495 0.317629 51.8284 0.000976562 51.4328 0.000976562H43.2458C42.851 0.000976562 42.531 0.318273 42.531 0.709841V7.94548C42.531 8.33705 42.8511 8.65447 43.2458 8.65447Z" fill="#2496ED"/>
<path d="M54.6637 29.4659H62.8508C63.2463 29.4659 63.5674 29.1493 63.5696 28.7571V21.5253C63.5696 21.1315 63.2478 20.8124 62.8508 20.8124H54.6637C54.269 20.8124 53.9489 21.1299 53.9489 21.5213V28.7569C53.9489 29.1485 54.269 29.4659 54.6637 29.4659Z" fill="#2496ED"/>
</svg>
