<svg width="50" height="66" viewBox="0 0 50 66" fill="none" xmlns="http://www.w3.org/2000/svg">
<path d="M32.5252 23.8392L25.8688 29.9852L19.6899 17.6208L22.8819 10.5115C23.6886 9.09342 25.0081 9.07469 25.8148 10.5115L32.5252 23.8392Z" fill="#FFA000"/>
<path d="M25.8715 29.9823L0.972656 52.9478L19.6926 17.6206L25.8715 29.9823Z" fill="#F57F17"/>
<path d="M39.8237 14.4391C41.0163 13.3126 42.244 13.6926 42.5543 15.2926L49.0272 52.6373L27.5578 65.4191C26.805 65.8365 24.8084 65.9997 24.8084 65.9997C24.8084 65.9997 22.9925 65.7803 22.2964 65.4004L0.972656 52.9477L39.8237 14.4391Z" fill="#FFCA28"/>
<path d="M19.6926 17.6208L0.972656 52.9479L9.31542 1.31242C9.62841 -0.287647 10.5431 -0.450864 11.3687 0.967253L19.6926 17.6208Z" fill="#FFA000"/>
</svg>
