<svg width="84" height="66" viewBox="0 0 84 66" fill="none" xmlns="http://www.w3.org/2000/svg">
<path d="M53.1246 18.1744H55.6483L62.838 11.0447L63.1916 8.0195C49.8141 -3.68924 29.3925 -2.42762 17.5854 10.8384C14.3025 14.5236 11.921 18.9066 10.6245 23.6506C11.4253 23.3241 12.3127 23.2725 13.1482 23.4994L27.524 21.148C27.524 21.148 28.2555 19.9483 28.6333 20.0239C35.0292 13.0591 45.7929 12.2478 53.1767 18.1744H53.1246Z" fill="#EA4335"/>
<path d="M73.0781 23.651C71.4245 17.6179 68.0342 12.1932 63.3162 8.04395L53.2285 18.0476C57.4889 21.499 59.9155 26.7002 59.8115 32.1558V33.9331C64.7722 33.9331 68.7899 37.9208 68.7899 42.8367C68.7899 47.756 64.7687 51.7403 59.8115 51.7403H41.8513L40.0591 53.5416V64.2225L41.8513 65.9998H59.8115C70.1072 66.0789 79.2416 59.4613 82.2991 49.7121C85.3497 39.9594 81.6058 29.3713 73.0781 23.651Z" fill="#4285F4"/>
<path d="M23.8666 65.8998H41.8269V51.6438H23.8666C22.5875 51.6438 21.3222 51.3722 20.1574 50.8428L17.6337 51.6163L10.3956 58.746L9.76465 61.2486C13.824 64.2875 18.7777 65.9204 23.8666 65.8998Z" fill="#34A853"/>
<path d="M23.8668 19.6495C13.89 19.708 5.05376 26.0436 1.87145 35.4182C-1.31086 44.7927 1.86105 55.1401 9.76829 61.1698L20.1853 50.8396C15.6649 48.8148 13.6578 43.5414 15.6996 39.0587C17.7414 34.5759 23.0591 32.5855 27.5795 34.6103C29.5693 35.5041 31.1639 37.0854 32.0653 39.0587L42.4823 28.7284C38.0486 22.9841 31.1605 19.6255 23.8668 19.6495Z" fill="#FBBC05"/>
</svg>
