<svg width="20px" height="20px" viewBox="0 0 501 511" fill="none"
    xmlns="http://www.w3.org/2000/svg">
    <path d="M500.062 260.79C500.062 239.814 498.36 224.506 494.676 208.632H255.146V303.309H395.745C392.912 326.838 377.604 362.271 343.588 386.081L343.111 389.251L418.846 447.922L424.093 448.446C472.281 403.941 500.062 338.459 500.062 260.79" fill="#4285F4"/>
    <path d="M255.146 510.241C324.028 510.241 381.855 487.563 424.093 448.446L343.588 386.081C322.045 401.105 293.13 411.593 255.146 411.593C187.682 411.593 130.422 367.09 110.01 305.578L107.018 305.832L28.2679 366.778L27.238 369.641C69.1908 452.979 155.365 510.241 255.146 510.241Z" fill="#34A853"/>
    <path d="M110.01 305.578C104.624 289.704 101.507 272.695 101.507 255.121C101.507 237.545 104.624 220.537 109.727 204.663L109.584 201.283L29.8469 139.358L27.2381 140.599C9.94735 175.182 0.0258789 214.018 0.0258789 255.121C0.0258789 296.223 9.94735 335.057 27.2381 369.641L110.01 305.578" fill="#FBBC05"/>
    <path d="M255.146 98.646C303.052 98.646 335.366 119.339 353.792 136.632L425.793 66.3314C381.573 25.2287 324.028 0 255.146 0C155.365 0 69.1908 57.26 27.238 140.599L109.727 204.663C130.422 143.151 187.682 98.646 255.146 98.646" fill="#EB4335"/>
</svg>
