<svg width="68" height="67" viewBox="0 0 68 67" fill="none" xmlns="http://www.w3.org/2000/svg">
<path fill-rule="evenodd" clip-rule="evenodd" d="M0.722656 0.5H67.2773V66.5H0.722656V0.5ZM51.6 55.8293C48.5152 55.8293 46.771 54.2337 45.4304 52.0631L40.348 54.9912C42.1841 58.5887 45.9365 61.3334 51.7447 61.3334C57.6849 61.3334 62.1082 58.2744 62.1082 52.6906C62.1082 47.5112 59.1079 45.2074 53.7941 42.9477L52.2306 42.2835C49.5473 41.1312 48.3853 40.3779 48.3853 38.5173C48.3853 37.0119 49.5463 35.8595 51.3781 35.8595C53.174 35.8595 54.3308 36.6107 55.4031 38.5173L60.2732 35.4164C58.2132 31.8231 55.3545 30.4507 51.3781 30.4507C45.7928 30.4507 42.2189 33.9916 42.2189 38.6431C42.2189 43.6926 45.217 46.0812 49.7301 47.9878L51.2936 48.6531C54.1459 49.8903 55.8468 50.6435 55.8468 52.7702C55.8468 54.5449 54.1914 55.8293 51.6 55.8293ZM27.3625 55.7905C25.2137 55.7905 24.32 54.3291 23.3375 52.6005L18.2466 55.6569C19.7213 58.7521 22.6212 61.3219 27.6287 61.3219C33.1707 61.3219 36.9674 58.3991 36.9674 51.9772V30.8048H30.7134V51.8933C30.7134 54.9933 29.4172 55.7905 27.3625 55.7905Z" fill="#F7DF1E"/>
</svg>
