<svg width="30" height="66" viewBox="0 0 30 66" fill="none" xmlns="http://www.w3.org/2000/svg">
<path d="M14.7914 0.180664L16.5675 3.48867C16.9668 4.09912 17.3993 4.63946 17.9089 5.14267C19.4027 6.60555 20.7951 8.16686 22.0765 9.81594C25.0858 13.7344 27.1156 18.086 28.5652 22.7922C29.4345 25.6671 29.9066 28.6163 29.9419 31.5984C30.0875 40.514 27.0054 48.1694 20.7913 54.5317C19.7805 55.5407 18.6885 56.4663 17.5262 57.2994C16.9106 57.2994 16.6195 56.8312 16.3657 56.4002C15.9037 55.6009 15.5962 54.7232 15.459 53.812C15.2406 52.7334 15.0971 51.6548 15.1678 50.5411V50.0379C15.1179 49.9306 14.5751 0.434333 14.7914 0.180664Z" fill="#599636"/>
<path d="M14.7916 0.0714393C14.7188 -0.0729251 14.646 0.0363793 14.5732 0.106499C14.6086 0.828321 14.3549 1.47177 13.9576 2.08635C13.5209 2.69681 12.9428 3.16496 12.3625 3.66817C9.13902 6.43584 6.60181 9.77891 4.56996 13.5179C1.86638 18.5501 0.47299 23.9431 0.0778501 29.6208C-0.103082 31.6687 0.73087 38.8951 1.38181 40.9802C3.15786 46.5155 6.34809 51.1537 10.4804 55.1794C11.4953 56.1487 12.5809 57.0479 13.7039 57.912C14.0304 57.912 14.0658 57.6233 14.1407 57.4088C14.2838 56.9499 14.3929 56.4812 14.4672 56.0064L15.1951 50.6155L14.7916 0.0714393Z" fill="#6CAC48"/>
<path d="M16.5678 59.4901C16.6406 58.6652 17.0399 57.9805 17.4746 57.2979C17.0378 57.1185 16.7134 56.7617 16.4597 56.3636C16.2409 55.9868 16.0598 55.5896 15.919 55.1778C15.4115 53.6682 15.3034 52.0843 15.1578 50.5417V49.6074C14.9769 49.7518 14.9394 50.9727 14.9394 51.1542C14.8336 52.7846 14.6154 54.406 14.2864 56.0069C14.1783 56.6544 14.1055 57.2999 13.7041 57.8753C13.7041 57.9475 13.7041 58.0197 13.7395 58.1269C14.3925 60.0325 14.5713 61.9732 14.6816 63.951V64.6728C14.6816 65.5348 14.6462 65.3534 15.3678 65.6421C15.659 65.7493 15.9834 65.7865 16.2746 66.0009C16.493 66.0009 16.5283 65.8215 16.5283 65.6771L16.4202 64.4913V61.1833C16.3848 60.6059 16.493 60.0325 16.5657 59.4922L16.5678 59.4901Z" fill="#C2BFBF"/>
</svg>
