<svg width="110" height="66" viewBox="0 0 110 66" fill="none" xmlns="http://www.w3.org/2000/svg">
<path d="M26.22 17.6255H46.7784V19.2516H28.1045V31.4906H45.6648V33.1168H28.1045V46.554H46.9925V48.1802H26.22V17.6255ZM48.6201 17.6255H50.8044L60.484 31.0627L70.3777 17.6255L83.8348 0.557129L61.7261 32.4749L73.1188 48.1802H70.8488L60.484 33.8871L50.0763 48.1802H47.8491L59.3276 32.4749L48.6201 17.6255ZM73.9326 19.2516V17.6255H97.3606V19.2516H86.5674V48.1802H84.6829V19.2516H73.9326Z" fill="white"/>
<path d="M0.5 17.6257H2.85565L35.3387 65.9999L21.915 48.1804L2.47018 19.9365L2.38452 48.1804H0.5V17.6257Z" fill="white"/>
<path d="M97.1705 46.0631C97.5601 46.0631 97.8443 45.7662 97.8443 45.3826C97.8443 44.9989 97.5601 44.702 97.1705 44.702C96.7855 44.702 96.4967 44.9989 96.4967 45.3826C96.4967 45.7662 96.7855 46.0631 97.1705 46.0631ZM99.0223 44.2727C99.0223 45.4054 99.8428 46.1453 101.039 46.1453C102.313 46.1453 103.083 45.3826 103.083 44.058V39.3946H102.057V44.0534C102.057 44.7888 101.685 45.1816 101.03 45.1816C100.443 45.1816 100.044 44.8162 100.031 44.2727H99.0223ZM104.426 44.2133C104.5 45.3917 105.485 46.1453 106.952 46.1453C108.519 46.1453 109.5 45.3552 109.5 44.0945C109.5 43.1034 108.941 42.5553 107.584 42.2401L106.856 42.062C105.994 41.861 105.646 41.5915 105.646 41.1211C105.646 40.5273 106.186 40.1391 106.998 40.1391C107.768 40.1391 108.299 40.5182 108.396 41.1256H109.395C109.335 40.0157 108.354 39.2347 107.011 39.2347C105.568 39.2347 104.605 40.0157 104.605 41.1896C104.605 42.1579 105.151 42.7334 106.347 43.012L107.199 43.2176C108.075 43.4231 108.46 43.7246 108.46 44.227C108.46 44.8116 107.855 45.2364 107.03 45.2364C106.145 45.2364 105.531 44.839 105.444 44.2133H104.426Z" fill="white"/>
</svg>
