<svg width="60" height="66" viewBox="0 0 60 66" fill="none" xmlns="http://www.w3.org/2000/svg">
<path d="M27.2975 0.704127C28.934 -0.232592 31.0656 -0.236823 32.7006 0.704127C40.9266 5.35223 49.1552 9.99305 57.3797 14.644C58.9267 15.5153 59.9614 17.2369 59.9457 19.0194V46.9842C59.9572 48.8405 58.8202 50.6032 57.1882 51.4548C48.9892 56.0773 40.7945 60.7054 32.597 65.3279C30.9266 66.2829 28.7523 66.2094 27.1342 65.176C24.6761 63.7511 22.2138 62.3332 19.7556 60.9097C19.2533 60.6102 18.687 60.3719 18.3323 59.8848C18.6459 59.4622 19.2065 59.4095 19.662 59.225C20.6881 58.8987 21.6304 58.375 22.573 57.8668C22.8114 57.7037 23.1024 57.7662 23.3309 57.9122C25.4328 59.1173 27.5161 60.3575 29.6251 61.5512C30.075 61.8109 30.5306 61.4661 30.9151 61.2517C38.9608 56.7044 47.0163 52.1743 55.0606 47.6257C55.3587 47.4823 55.5234 47.1659 55.4992 46.8394C55.5049 37.6144 55.5006 28.3878 55.5021 19.1628C55.5361 18.7923 55.3218 18.4517 54.9868 18.3001C46.8163 13.6988 38.65 9.09041 30.481 4.48791C30.3394 4.39061 30.1718 4.3384 30 4.33815C29.8282 4.33789 29.6604 4.38961 29.5186 4.4865C21.3495 9.09041 13.1847 13.703 5.01559 18.3041C4.6818 18.456 4.45779 18.7909 4.49751 19.1628C4.49892 28.3878 4.49751 37.6144 4.49751 46.8408C4.48335 47.0001 4.51834 47.1599 4.59777 47.2987C4.6772 47.4375 4.79726 47.5487 4.94178 47.6172C7.12174 48.8534 9.30452 50.0809 11.4859 51.3128C12.7148 51.9743 14.2236 52.3673 15.5776 51.8605C16.7724 51.432 17.6099 50.2127 17.5871 48.9441C17.5984 39.773 17.5815 30.6004 17.5956 21.4307C17.5657 21.0235 17.952 20.6872 18.3478 20.7255C19.3952 20.7184 20.4441 20.7114 21.4915 20.7283C21.9287 20.7184 22.2296 21.1568 22.1755 21.567C22.1713 30.7962 22.1868 40.0257 22.1685 49.2549C22.1713 51.7145 21.1608 54.391 18.8856 55.5945C16.0827 57.0464 12.6184 56.7385 9.84939 55.3462C7.45223 54.1498 5.16462 52.7378 2.81001 51.456C1.17375 50.6091 0.0423953 48.8393 0.0539133 46.9844V19.0194C0.0367538 17.2 1.11263 15.4472 2.70776 14.5885C10.9053 9.96225 19.1014 5.33248 27.2975 0.704127Z" fill="#8CC84B"/>
<path d="M34.4489 20.0751C38.0242 19.845 41.8517 19.9388 45.069 21.7001C47.5599 23.0498 48.9409 25.8825 48.9849 28.6499C48.9153 29.0232 48.5251 29.2291 48.1687 29.2035C47.1314 29.202 46.0939 29.2176 45.0565 29.1964C44.6165 29.2133 44.3608 28.8076 44.3055 28.4186C44.0075 27.0945 43.2853 25.7831 42.0391 25.1444C40.1259 24.1865 37.9076 24.2347 35.8214 24.2547C34.2985 24.3356 32.6608 24.4674 31.3706 25.363C30.38 26.0414 30.0791 27.4109 30.4327 28.5138C30.766 29.3057 31.6801 29.5612 32.4281 29.7968C36.7368 30.9236 41.3026 30.8115 45.529 32.2945C47.2788 32.8991 48.9905 34.0744 49.5895 35.9065C50.3729 38.3619 50.0295 41.2969 48.2825 43.2681C46.8658 44.8903 44.8024 45.7732 42.7445 46.2527C40.0067 46.8631 37.1655 46.8787 34.3852 46.6076C31.7709 46.3096 29.0503 45.6227 27.032 43.8414C25.3062 42.3429 24.4633 40.008 24.547 37.7545C24.5669 37.374 24.9459 37.1086 25.3104 37.1398C26.3551 37.1314 27.3997 37.1286 28.4443 37.1412C28.8615 37.1114 29.1709 37.472 29.1922 37.8652C29.385 39.1268 29.8591 40.4509 30.9592 41.1989C33.0823 42.5686 35.7462 42.4748 38.1772 42.5131C40.1912 42.4238 42.4521 42.3967 44.0956 41.0656C44.9627 40.3063 45.2197 39.0361 44.9853 37.9433C44.7314 37.0207 43.7663 36.5907 42.9375 36.3096C38.684 34.9641 34.0672 35.4523 29.8549 33.9308C28.1448 33.3264 26.4912 32.1838 25.8342 30.427C24.9174 27.9405 25.3375 24.8649 27.2676 22.9602C29.1495 21.0656 31.8661 20.3362 34.4489 20.0751Z" fill="#8CC84B"/>
</svg>
