<svg width="110" height="42" viewBox="0 0 110 42" fill="none" xmlns="http://www.w3.org/2000/svg">
<path d="M80.7212 34.6492L83.8701 26.6864H92.9622L88.6471 14.6073L94.0435 0.960449L109.5 41.9994H98.1014L95.4599 34.6492H80.7212Z" fill="white"/>
<path d="M70.9972 41.9997L87.5435 0.960938H76.5738L65.2546 27.4807L57.206 0.960938H48.7739L40.1319 27.4807L34.0367 15.3963L28.5215 32.3886L34.1215 41.9997H44.917L52.7266 18.2168L60.1726 41.9997H70.9972Z" fill="#5A0FC8"/>
<path d="M10.9127 27.9117H17.6694C19.7165 27.9117 21.5391 27.6831 23.1372 27.226L24.8851 21.8429L29.7685 6.79664C29.3966 6.20679 28.9717 5.64918 28.4941 5.12364C25.9863 2.34818 22.3177 0.960449 17.4876 0.960449H0.5V41.9994H10.9127V27.9117ZM19.8568 10.4021C20.8359 11.3876 21.3258 12.707 21.3258 14.3596C21.3258 16.0249 20.8949 17.3454 20.034 18.3216C19.0892 19.4064 17.3508 19.9483 14.8174 19.9483H10.9127V8.92324H14.846C17.207 8.92324 18.877 9.41592 19.8568 10.4021Z" fill="white"/>
</svg>
