<svg width="68" height="66" viewBox="0 0 68 66" fill="none" xmlns="http://www.w3.org/2000/svg">
<path d="M33.759 0.000488281C16.775 0.000488281 17.8355 7.3044 17.8355 7.3044L17.8543 14.8715H34.0619V17.1433H11.4169C11.4169 17.1433 0.548828 15.921 0.548828 32.915C0.548828 49.9094 10.0348 49.3067 10.0348 49.3067H15.6959V41.4206C15.6959 41.4206 15.3907 32.0138 25.0305 32.0138H41.1055C41.1055 32.0138 50.1369 32.1585 50.1369 23.3579V8.80674C50.1369 8.80674 51.5086 0.000488281 33.759 0.000488281ZM24.8222 5.08919C25.2052 5.08885 25.5845 5.16341 25.9384 5.30859C26.2923 5.45378 26.6139 5.66675 26.8847 5.93531C27.1555 6.20387 27.3703 6.52276 27.5167 6.87371C27.6631 7.22467 27.7383 7.60082 27.7379 7.98062C27.7383 8.36042 27.6631 8.73657 27.5167 9.08753C27.3703 9.43849 27.1555 9.75737 26.8847 10.0259C26.6139 10.2945 26.2923 10.5075 25.9384 10.6526C25.5845 10.7978 25.2052 10.8724 24.8222 10.872C24.4392 10.8724 24.0599 10.7978 23.706 10.6526C23.3521 10.5075 23.0305 10.2945 22.7597 10.0259C22.4889 9.75737 22.2741 9.43849 22.1277 9.08753C21.9813 8.73657 21.9061 8.36042 21.9065 7.98062C21.9061 7.60082 21.9813 7.22467 22.1277 6.87371C22.2741 6.52276 22.4889 6.20387 22.7597 5.93531C23.0305 5.66675 23.3521 5.45378 23.706 5.30859C24.0599 5.16341 24.4392 5.08885 24.8222 5.08919Z" fill="url(#paint0_linear_475_210)"/>
<path d="M34.2416 65.9999C51.2256 65.9999 50.1651 58.696 50.1651 58.696L50.1463 51.1292H33.9384V48.8573H56.5834C56.5834 48.8573 67.4515 50.0796 67.4515 33.0851C67.4515 16.0909 57.9656 16.6936 57.9656 16.6936H52.3044V24.5794C52.3044 24.5794 52.6096 33.9863 42.9699 33.9863H26.8949C26.8949 33.9863 17.8634 33.8416 17.8634 42.6424V57.1939C17.8634 57.1939 16.492 65.9999 34.2413 65.9999H34.2416ZM43.1784 60.9117C42.7954 60.912 42.4161 60.8375 42.0622 60.6923C41.7083 60.5471 41.3867 60.3341 41.1159 60.0656C40.8451 59.797 40.6303 59.4781 40.4839 59.1272C40.3375 58.7762 40.2623 58.4001 40.2627 58.0203C40.2623 57.6404 40.3374 57.2643 40.4838 56.9133C40.6302 56.5623 40.845 56.2434 41.1158 55.9748C41.3866 55.7062 41.7082 55.4932 42.0621 55.348C42.4161 55.2028 42.7954 55.1282 43.1784 55.1286C43.5614 55.1282 43.9407 55.2028 44.2946 55.348C44.6485 55.4932 44.9701 55.7061 45.2409 55.9747C45.5117 56.2433 45.7265 56.5621 45.8729 56.9131C46.0193 57.2641 46.0945 57.6402 46.0941 58.02C46.0945 58.3998 46.0193 58.776 45.8729 59.1269C45.7265 59.4779 45.5117 59.7968 45.2409 60.0653C44.9701 60.3339 44.6485 60.5469 44.2946 60.692C43.9407 60.8372 43.5614 60.9118 43.1784 60.9114V60.9117Z" fill="url(#paint1_linear_475_210)"/>
<defs>
<linearGradient id="paint0_linear_475_210" x1="6.97813" y1="5.93678" x2="39.8583" y2="38.7625" gradientUnits="userSpaceOnUse">
<stop stop-color="#387EB8"/>
<stop offset="1" stop-color="#366994"/>
</linearGradient>
<linearGradient id="paint1_linear_475_210" x1="27.3288" y1="26.8382" x2="62.6519" y2="60.5109" gradientUnits="userSpaceOnUse">
<stop stop-color="#FFE052"/>
<stop offset="1" stop-color="#FFC331"/>
</linearGradient>
</defs>
</svg>
