<svg width="62" height="56" viewBox="0 0 62 56" fill="none" xmlns="http://www.w3.org/2000/svg">
<path d="M30.9998 33.4399C33.9793 33.4399 36.3948 31.0446 36.3948 28.0899C36.3948 25.1351 33.9793 22.7398 30.9998 22.7398C28.0202 22.7398 25.6048 25.1351 25.6048 28.0899C25.6048 31.0446 28.0202 33.4399 30.9998 33.4399Z" fill="#61DAFB"/>
<path fill-rule="evenodd" clip-rule="evenodd" d="M5.63282 25.2744C4.40938 26.3696 4.00725 27.3245 4.00725 28.0894C4.00725 28.8543 4.40938 29.8093 5.63282 30.9045C6.85544 31.999 8.73497 33.0739 11.2244 34.0165C16.1896 35.8965 23.1808 37.0999 30.9999 37.0999C38.8191 37.0999 45.8103 35.8965 50.7755 34.0165C53.2649 33.0739 55.1445 31.999 56.3671 30.9045C57.5905 29.8093 57.9926 28.8543 57.9926 28.0894C57.9926 27.3245 57.5905 26.3696 56.3671 25.2744C55.1445 24.1799 53.2649 23.1049 50.7755 22.1623C45.8103 20.2823 38.8191 19.079 30.9999 19.079C23.1808 19.079 16.1896 20.2823 11.2244 22.1623C8.73497 23.1049 6.85544 24.1799 5.63282 25.2744ZM9.83578 18.5153C15.348 16.4282 22.8312 15.1778 30.9999 15.1778C39.1687 15.1778 46.6519 16.4282 52.1641 18.5153C54.9133 19.5562 57.2732 20.8432 58.9804 22.3714C60.6867 23.8989 61.9047 25.8275 61.9047 28.0894C61.9047 30.3513 60.6867 32.28 58.9804 33.8075C57.2732 35.3357 54.9133 36.6226 52.1641 37.6636C46.6519 39.7507 39.1687 41.001 30.9999 41.001C22.8312 41.001 15.348 39.7507 9.83578 37.6636C7.08657 36.6226 4.72666 35.3357 3.01951 33.8075C1.31317 32.28 0.0952148 30.3513 0.0952148 28.0894C0.0952148 25.8275 1.31317 23.8989 3.01951 22.3714C4.72666 20.8432 7.08657 19.5562 9.83578 18.5153Z" fill="#61DAFB"/>
<path fill-rule="evenodd" clip-rule="evenodd" d="M20.7907 4.9008C19.2245 4.39835 18.1841 4.52791 17.5078 4.91512C16.8315 5.30234 16.1982 6.13103 15.8539 7.72731C15.5095 9.32371 15.5105 11.4739 15.9318 14.0815C16.7721 19.2827 19.2157 25.8858 23.1241 32.599C27.0325 39.3121 31.5772 44.7122 35.6993 48.0345C37.7659 49.7001 39.6432 50.776 41.2095 51.2785C42.7757 51.781 43.816 51.6514 44.4923 51.2642C45.1686 50.877 45.802 50.0483 46.1463 48.452C46.4906 46.8556 46.4896 44.7055 46.0683 42.0978C45.228 36.8966 42.7845 30.2935 38.8761 23.5803C34.9677 16.8672 30.4229 11.4671 26.3008 8.14485C24.2342 6.47924 22.357 5.40329 20.7907 4.9008ZM28.7668 5.12451C33.3479 8.81673 38.1831 14.6205 42.2687 21.6379C46.3543 28.6554 49.0051 35.7098 49.939 41.4902C50.4048 44.3734 50.4608 47.0451 49.9796 49.2761C49.4984 51.5073 48.4235 53.5117 46.4565 54.6379C44.4895 55.7641 42.2016 55.685 40.0125 54.9827C37.8235 54.2804 35.5183 52.8964 33.2333 51.0548C28.6523 47.3626 23.817 41.5588 19.7314 34.5414C15.6459 27.5239 12.9951 20.4695 12.0612 14.6891C11.5954 11.8059 11.5393 9.13427 12.0205 6.9032C12.5018 4.67201 13.5766 2.66758 15.5436 1.54139C17.5106 0.415199 19.7985 0.494345 21.9876 1.19664C24.1766 1.8989 26.4818 3.28287 28.7668 5.12451Z" fill="#61DAFB"/>
<path fill-rule="evenodd" clip-rule="evenodd" d="M46.1459 7.72745C45.8016 6.13117 45.1683 5.30248 44.492 4.91526C43.8157 4.52805 42.7753 4.39849 41.2091 4.90095C39.6428 5.40343 37.7656 6.47938 35.699 8.14499C31.5769 11.4673 27.0321 16.8674 23.1237 23.5805C19.2153 30.2936 16.7718 36.8967 15.9315 42.098C15.5102 44.7056 15.5092 46.8558 15.8535 48.4522C16.1978 50.0484 16.8312 50.8771 17.5075 51.2643C18.1838 51.6515 19.2241 51.7811 20.7903 51.2787C22.3566 50.7762 24.2339 49.7002 26.3005 48.0346C30.4226 44.7123 34.9673 39.3122 38.8757 32.5991C42.7841 25.886 45.2276 19.2829 46.068 14.0816C46.4892 11.474 46.4903 9.32385 46.1459 7.72745ZM49.9386 14.6893C49.0047 20.4697 46.3539 27.5241 42.2683 34.5415C38.1828 41.559 33.3475 47.3627 28.7665 51.055C26.4815 52.8966 24.1763 54.2806 21.9873 54.9828C19.7982 55.6851 17.5103 55.7643 15.5433 54.6381C13.5763 53.5119 12.5014 51.5075 12.0202 49.2763C11.539 47.0452 11.595 44.3735 12.0608 41.4903C12.9947 35.71 15.6455 28.6555 19.7311 21.6381C23.8167 14.6206 28.6519 8.81687 33.233 5.12466C35.518 3.28302 37.8232 1.89904 40.0122 1.19678C42.2013 0.494485 44.4892 0.415339 46.4562 1.54153C48.4232 2.66772 49.498 4.67215 49.9793 6.90334C50.4605 9.13441 50.4044 11.8061 49.9386 14.6893Z" fill="#61DAFB"/>
</svg>
