<svg width="78" height="66" viewBox="0 0 78 66" fill="none" xmlns="http://www.w3.org/2000/svg">
<path d="M74.6196 50.8344C70.4945 52.9845 49.1256 61.7706 44.5763 64.1424C40.027 66.5144 37.4998 66.4915 33.9058 64.7734C30.3121 63.0554 7.57184 53.8698 3.47543 51.9117C1.42828 50.9334 0.351562 50.1073 0.351562 49.3271V41.5141C0.351562 41.5141 29.9567 35.0692 34.7361 33.3545C39.5152 31.6398 41.1735 31.5779 45.2406 33.0677C49.3083 34.5581 73.6283 38.9458 77.648 40.4181L77.6462 48.1206C77.6468 48.8929 76.7193 49.7402 74.6196 50.8344Z" fill="#912626"/>
<path d="M74.618 43.0679C70.4932 45.2171 49.125 54.0036 44.5756 56.375C40.0266 58.7473 37.4994 58.7241 33.9057 57.006C30.3117 55.2892 7.57237 46.1021 3.47627 44.1453C-0.619844 42.1872 -0.705595 40.8396 3.31805 39.2641C7.34169 37.688 29.9563 28.8155 34.7364 27.1008C39.5154 25.3867 41.1734 25.3242 45.2405 26.8146C49.3079 28.3043 70.5488 36.7589 74.5679 38.2309C78.5885 39.7046 78.7428 40.9181 74.618 43.0679Z" fill="#C6302B"/>
<path d="M74.6196 38.1926C70.4945 40.343 49.1256 49.1288 44.5763 51.5015C40.027 53.8726 37.4998 53.8497 33.9058 52.1316C30.3118 50.4145 7.57184 41.228 3.47543 39.2699C1.42828 38.2916 0.351562 37.4667 0.351562 36.6862V28.8723C0.351562 28.8723 29.9567 22.4278 34.7361 20.713C39.5152 18.9983 41.1735 18.9361 45.2406 20.4262C49.3086 21.9163 73.6286 26.3031 77.648 27.7757L77.6462 35.4791C77.6468 36.2511 76.7193 37.0984 74.6196 38.1926Z" fill="#912626"/>
<path d="M74.618 30.4257C70.4932 32.5755 49.125 41.3614 44.5756 43.7337C40.0266 46.1051 37.4994 46.0819 33.9057 44.3638C30.3117 42.647 7.57237 33.4602 3.47627 31.503C-0.619844 29.5456 -0.705595 28.1977 3.31805 26.6216C7.34169 25.0464 29.9566 16.1733 34.7364 14.4589C39.5154 12.7445 41.1734 12.6823 45.2405 14.1723C49.3079 15.6621 70.5488 24.1161 74.5679 25.5887C78.5885 27.0621 78.7428 28.2759 74.618 30.4257Z" fill="#C6302B"/>
<path d="M74.6196 25.0817C70.4945 27.2315 49.1256 36.0179 44.5763 38.3906C40.027 40.762 37.4998 40.7388 33.9058 39.0207C30.3118 37.3036 7.57184 28.1168 3.47543 26.1596C1.42828 25.1804 0.351562 24.3552 0.351562 23.5756V15.7614C0.351562 15.7614 29.9567 9.31709 34.7361 7.60268C39.5152 5.88766 41.1735 5.82606 45.2406 7.31583C49.3086 8.80591 73.6286 13.1928 77.648 14.6654L77.6462 22.3684C77.6468 23.1399 76.7193 23.9871 74.6196 25.0817Z" fill="#912626"/>
<path d="M74.6179 17.3155C70.4931 19.4653 49.1248 28.2518 44.5755 30.6232C40.0265 32.9946 37.4992 32.9714 33.9056 31.2542C30.3119 29.5362 7.57222 20.35 3.47642 18.3925C-0.619995 16.4354 -0.705444 15.0872 3.3179 13.5114C7.34154 11.9359 29.9565 3.06396 34.7362 1.34894C39.5153 -0.365771 41.1732 -0.427367 45.2404 1.06271C49.3078 2.55278 70.5486 11.0068 74.5677 12.4793C78.5884 13.9516 78.7426 15.1657 74.6179 17.3155Z" fill="#C6302B"/>
<path d="M48.4453 9.71471L41.7996 10.4046L40.312 13.9844L37.9091 9.98977L30.2353 9.30014L35.9613 7.23518L34.2433 4.06543L39.6042 6.16209L44.6581 4.50747L43.2921 7.78501L48.4453 9.71471ZM39.9152 27.0816L27.5124 21.9375L45.2846 19.2095L39.9152 27.0816ZM22.7197 11.7045C27.9659 11.7045 32.2188 13.3531 32.2188 15.3863C32.2188 17.4202 27.9659 19.0685 22.7197 19.0685C17.4735 19.0685 13.2207 17.4199 13.2207 15.3863C13.2207 13.3531 17.4735 11.7045 22.7197 11.7045Z" fill="white"/>
<path d="M56.2993 10.6937L66.8177 14.8502L56.3084 19.0028L56.2993 10.6934" fill="#621B1C"/>
<path d="M44.6626 15.2964L56.2993 10.6934L56.3084 19.0025L55.1674 19.4487L44.6626 15.2964Z" fill="#9A2928"/>
</svg>
