<svg width="66" height="67" viewBox="0 0 66 67" fill="none" xmlns="http://www.w3.org/2000/svg">
<path fill-rule="evenodd" clip-rule="evenodd" d="M66 0.5H0V66.5H66V0.5ZM34.8561 24.9412H31.6902C29.937 24.9412 25.9151 24.9309 22.7389 24.9103C19.5626 24.8897 15.747 24.8897 14.262 24.9103L11.5498 24.9412V30.4069H20.1092V54.7134L20.8104 54.7753C21.687 54.8681 25.7605 54.8681 26.0698 54.7856L26.2967 54.7237V30.4069H34.8561V24.9412ZM50.9952 54.8269C53.2433 54.2184 54.5942 53.4759 55.8524 52.1456C57.3993 50.5162 58.1108 48.2166 57.8633 45.7003C57.523 42.3591 56.2133 40.4203 52.9958 38.5331C52.3049 38.1206 49.6546 36.8006 49.5308 36.8006C49.4483 36.8006 48.3552 36.285 47.0764 35.6559C45.0964 34.6762 44.5602 34.0162 44.5499 32.6137C44.5499 31.6547 44.8799 30.9637 45.5605 30.51C46.2102 30.0769 46.7258 29.9634 47.6952 30.0253C49.0564 30.1078 49.6236 30.4687 51.0261 32.1497C51.253 32.4178 51.3664 32.4797 51.5314 32.4281C51.7996 32.3456 55.9143 29.6025 56.0174 29.4478C56.1721 29.19 54.5943 27.2512 53.5527 26.4262C52.1708 25.3228 50.7374 24.8072 48.6336 24.6319C47.9014 24.5803 47.1177 24.5391 46.8805 24.5391C44.787 24.6112 42.6008 25.3744 41.1983 26.5294C40.7342 26.9109 40.497 27.1481 39.837 27.9216C39.5174 28.2825 38.8161 29.7159 38.5995 30.4584C38.4449 30.9534 38.4139 31.4278 38.4242 32.8819C38.4345 34.9547 38.5274 35.4084 39.2492 36.8006C39.8061 37.8834 39.9814 38.1206 40.8683 38.9869C42.0645 40.1522 43.5392 41.0184 46.8186 42.4725C49.9949 43.875 50.7786 44.37 51.3561 45.3187C51.5624 45.6591 51.6036 45.8653 51.6036 46.6078C51.6139 47.4122 51.583 47.5256 51.3149 47.9484C50.923 48.5466 50.593 48.8456 49.9433 49.1447C49.3349 49.4231 48.2005 49.6912 47.5817 49.6912C46.9114 49.6912 45.5192 49.3922 44.8902 49.1241C43.8692 48.6703 42.4255 47.34 41.8067 46.2984C41.7036 46.1231 41.5695 45.9787 41.4974 45.9787C41.4252 45.9787 40.7858 46.3191 40.0845 46.7419C39.3833 47.1647 38.5789 47.6391 38.3005 47.7834C38.0571 47.9096 37.7112 48.1147 37.4765 48.2538C37.4427 48.2738 37.4112 48.2925 37.3827 48.3094C37.3196 48.3466 37.2525 48.3871 37.1857 48.4274C37.0121 48.5321 36.8401 48.6359 36.7433 48.6806C36.6092 48.7425 36.5061 48.8353 36.5061 48.8766C36.5061 49.0209 37.2177 50.1759 37.6508 50.7328C39.177 52.7025 41.4149 54.0947 44.1889 54.8062C45.2582 55.0839 45.4357 55.0847 47.624 55.0949L47.6436 55.095C49.8505 55.1053 50.0155 55.095 50.9952 54.8269Z" fill="#017ACB"/>
</svg>
