<svg width="109" height="40" viewBox="0 0 109 40" fill="none" xmlns="http://www.w3.org/2000/svg">
<path d="M99.9663 22.6405C99.7153 22.6405 99.5898 22.515 99.5898 22.264V18.8306C99.5898 18.5997 99.6651 18.4491 99.8157 18.3789L102.873 16.7676V16.2405L99.8157 14.584C99.6651 14.5037 99.5898 14.3431 99.5898 14.1022V9.05745C99.5898 8.97714 99.5999 8.90184 99.62 8.83157C99.64 8.75126 99.6953 8.67596 99.7856 8.60569L102.993 6.25651C103.063 6.21635 103.139 6.1762 103.219 6.13604C103.299 6.09588 103.385 6.07581 103.475 6.07581H108.143C108.394 6.07581 108.52 6.2013 108.52 6.45228V9.81039C108.52 9.9409 108.51 10.0463 108.49 10.1266C108.48 10.2069 108.424 10.2722 108.324 10.3224L105.508 11.8433V12.3553L108.264 13.8612C108.434 13.9415 108.52 14.0921 108.52 14.313V19.177C108.52 19.428 108.434 19.6287 108.264 19.7793L105.312 22.4447C105.152 22.5753 104.951 22.6405 104.71 22.6405H99.9663Z" fill="white"/>
<path d="M94.4276 22.6405C94.1565 22.6405 93.9558 22.5753 93.8253 22.4447L92.1085 20.728L90.3015 18.921C90.1911 18.8106 90.1208 18.7252 90.0907 18.665C90.0706 18.5947 90.0605 18.4793 90.0605 18.3186V10.3977C90.0605 10.227 90.0706 10.1116 90.0907 10.0513C90.1208 9.9911 90.1911 9.90577 90.3015 9.79533L92.0935 8.00333L93.8253 6.27157C93.9056 6.19126 93.9909 6.14106 94.0813 6.12098C94.1716 6.09086 94.2871 6.07581 94.4276 6.07581H97.9363C98.1873 6.07581 98.3128 6.2013 98.3128 6.45228V10.5182C98.3128 10.6085 98.3027 10.6888 98.2827 10.7591C98.2726 10.8294 98.2224 10.9097 98.1321 11L96.9123 12.2198L95.7227 13.4095V15.3069L96.8069 16.3911L98.1321 17.7163C98.2224 17.8066 98.2726 17.8869 98.2827 17.9572C98.3027 18.0275 98.3128 18.1078 98.3128 18.1982V22.264C98.3128 22.515 98.1873 22.6405 97.9363 22.6405H94.4276Z" fill="white"/>
<path d="M83.6733 22.6406C83.4224 22.6406 83.2969 22.5151 83.2969 22.2641V6.45233C83.2969 6.20135 83.4224 6.07586 83.6733 6.07586H88.4319C88.6829 6.07586 88.8084 6.20135 88.8084 6.45233V22.2641C88.8084 22.5151 88.6829 22.6406 88.4319 22.6406H83.6733ZM83.5981 4.82598C83.3973 4.82598 83.2969 4.72559 83.2969 4.5248V2.61233C83.2969 2.41155 83.3973 2.31116 83.5981 2.31116H88.5373C88.7181 2.31116 88.8084 2.41155 88.8084 2.61233V4.5248C88.8084 4.72559 88.7181 4.82598 88.5373 4.82598H83.5981Z" fill="white"/>
<path d="M70.1128 22.6406C69.8618 22.6406 69.7363 22.5151 69.7363 22.2641V2.94361C69.7363 2.69263 69.8618 2.56714 70.1128 2.56714H74.8714C75.1224 2.56714 75.2479 2.69263 75.2479 2.94361V7.08479L76.0008 6.33184C76.1715 6.16118 76.3723 6.07585 76.6032 6.07585H78.1693C78.4002 6.07585 78.601 6.16118 78.7716 6.33184L81.7834 9.34361C81.944 9.50424 82.0243 9.70502 82.0243 9.94596V18.7704C82.0243 19.0114 81.944 19.2122 81.7834 19.3728L78.7716 22.3846C78.601 22.5552 78.4002 22.6406 78.1693 22.6406H70.1128ZM75.2479 17.626H75.8803C76.0811 17.626 76.2367 17.5707 76.3471 17.4603C76.4576 17.3499 76.5128 17.1943 76.5128 16.9935V11.7229C76.5128 11.5221 76.4626 11.3665 76.3622 11.2561C76.2618 11.1456 76.1112 11.0904 75.9104 11.0904H75.8502C75.6595 11.0904 75.5089 11.1456 75.3984 11.2561C75.2981 11.3665 75.2479 11.5221 75.2479 11.7229V17.626Z" fill="white"/>
<path d="M60.0328 22.6405C59.8019 22.6405 59.6011 22.5552 59.4304 22.3845L56.4187 19.3727C56.258 19.2121 56.1777 19.0113 56.1777 18.7704V6.45228C56.1777 6.2013 56.3032 6.07581 56.5542 6.07581H61.3128C61.5638 6.07581 61.6893 6.2013 61.6893 6.45228V16.4965C61.6893 16.9081 61.9001 17.1139 62.3217 17.1139H62.9542V6.45228C62.9542 6.2013 63.0797 6.07581 63.3307 6.07581H68.0893C68.3402 6.07581 68.4657 6.2013 68.4657 6.45228V22.264C68.4657 22.515 68.3402 22.6405 68.0893 22.6405H60.0328Z" fill="white"/>
<path d="M50.3336 22.6406C50.0726 22.6406 49.8718 22.5753 49.7312 22.4448L48.0597 20.7582L45.2136 17.9271C45.1032 17.8167 45.0329 17.7314 45.0028 17.6711C44.9827 17.6009 44.9727 17.4854 44.9727 17.3248V7.8829C44.9727 7.71224 44.9827 7.59679 45.0028 7.53655C45.0329 7.47632 45.1032 7.39098 45.2136 7.28055L47.4724 4.99161L49.7312 2.7629C49.8216 2.67255 49.912 2.61733 50.0023 2.59726C50.0927 2.57718 50.2031 2.56714 50.3336 2.56714H54.5501C54.801 2.56714 54.9265 2.69263 54.9265 2.94361V7.09984C54.9265 7.1902 54.9165 7.27553 54.8964 7.35584C54.8864 7.42612 54.8412 7.50141 54.7609 7.58173L52.7731 9.53937L51.192 11.1507V14.313L52.9689 16.1201L54.7609 17.8669C54.8412 17.9372 54.8864 18.0125 54.8964 18.0928C54.9165 18.1731 54.9265 18.2584 54.9265 18.3488V22.2641C54.9265 22.5151 54.801 22.6406 54.5501 22.6406H50.3336Z" fill="white"/>
<path d="M104.208 35.0876C104.074 35.0876 104.008 35.0209 104.008 34.8876V33.5916C104.008 33.4689 104.048 33.3889 104.128 33.3516L105.76 32.3836V31.5516L104.128 30.6716C104.048 30.6236 104.008 30.5409 104.008 30.4236V27.8716C104.008 27.8129 104.016 27.7649 104.032 27.7276C104.053 27.6903 104.082 27.6583 104.12 27.6316L105.824 26.3836C105.882 26.3409 105.93 26.3143 105.968 26.3036C106.005 26.2929 106.042 26.2876 106.08 26.2876H108.024C108.157 26.2876 108.224 26.3543 108.224 26.4876V27.7436C108.224 27.8343 108.216 27.8956 108.2 27.9276C108.189 27.9596 108.162 27.9863 108.12 28.0076L106.608 28.8236V29.7516L108.224 30.5516C108.314 30.5889 108.36 30.6689 108.36 30.7916V33.2476C108.36 33.3809 108.314 33.4876 108.224 33.5676L106.52 34.9836C106.434 35.0529 106.328 35.0876 106.2 35.0876H104.208Z" fill="#6ED058"/>
<path d="M96.8484 35.0876C96.7151 35.0876 96.6484 35.0209 96.6484 34.8876V26.4876C96.6484 26.3543 96.7151 26.2876 96.8484 26.2876H101.128C101.251 26.2876 101.358 26.3329 101.448 26.4236L103.048 28.0236C103.139 28.1089 103.184 28.2156 103.184 28.3436V34.8876C103.184 35.0209 103.118 35.0876 102.984 35.0876H100.848C100.715 35.0876 100.648 35.0209 100.648 34.8876V28.6636C100.648 28.4129 100.523 28.2876 100.272 28.2876H99.1844V34.8876C99.1844 35.0209 99.1178 35.0876 98.9844 35.0876H96.8484Z" fill="#6ED058"/>
<path d="M91.3608 37.7516C91.2275 37.7516 91.1608 37.6849 91.1608 37.5516V36.3036C91.1608 36.1969 91.2008 36.1383 91.2808 36.1276L92.4488 35.8316L93.2808 35.3916C93.3608 35.3489 93.4008 35.2663 93.4008 35.1436V33.8316L92.6488 34.5276C92.5582 34.6183 92.4515 34.6636 92.3288 34.6636L90.9688 34.7116C90.8462 34.7116 90.7395 34.6689 90.6488 34.5836L89.1848 33.1116C89.0942 33.0263 89.0488 32.9196 89.0488 32.7916V28.3436C89.0488 28.2156 89.0942 28.1089 89.1848 28.0236L90.7848 26.4236C90.8755 26.3329 90.9822 26.2876 91.1048 26.2876H95.3848C95.5182 26.2876 95.5848 26.3543 95.5848 26.4876V36.1036C95.5848 36.2476 95.5395 36.3543 95.4488 36.4236L94.3848 37.1036L93.0408 37.6636C92.9608 37.6956 92.8995 37.7169 92.8568 37.7276C92.8195 37.7436 92.7555 37.7516 92.6648 37.7516H91.3608ZM92.0408 32.9836H92.6008C92.7715 32.9836 92.8888 32.9489 92.9528 32.8796C93.0168 32.8103 93.0488 32.6876 93.0488 32.5116V28.1516H92.0408C91.8648 28.1516 91.7448 28.1863 91.6808 28.2556C91.6168 28.3249 91.5848 28.4476 91.5848 28.6236V32.5116C91.5848 32.6876 91.6168 32.8103 91.6808 32.8796C91.7448 32.9489 91.8648 32.9836 92.0408 32.9836Z" fill="#6ED058"/>
<path d="M85.7156 35.0876C85.5823 35.0876 85.5156 35.0209 85.5156 34.8876V26.4876C85.5156 26.3543 85.5823 26.2876 85.7156 26.2876H87.8436C87.977 26.2876 88.0436 26.3543 88.0436 26.4876V34.8876C88.0436 35.0209 87.977 35.0876 87.8436 35.0876H85.7156ZM85.6756 25.6236C85.569 25.6236 85.5156 25.5703 85.5156 25.4636V24.4476C85.5156 24.3409 85.569 24.2876 85.6756 24.2876H87.8996C87.9956 24.2876 88.0436 24.3409 88.0436 24.4476V25.4636C88.0436 25.5703 87.9956 25.6236 87.8996 25.6236H85.6756Z" fill="#6ED058"/>
<path d="M79.972 35.0876C79.8494 35.0876 79.7427 35.0423 79.652 34.9516L78.052 33.3516C77.9613 33.2663 77.916 33.1596 77.916 33.0316V28.3436C77.916 28.2156 77.9613 28.1089 78.052 28.0236L79.652 26.4236C79.7427 26.3329 79.8494 26.2876 79.972 26.2876H84.252C84.3854 26.2876 84.452 26.3543 84.452 26.4876V34.8876C84.452 35.0209 84.3854 35.0876 84.252 35.0876H82.588C82.5187 35.0876 82.4654 35.0743 82.428 35.0476C82.396 35.0209 82.3587 34.9889 82.316 34.9516L81.916 34.5516L81.516 34.9516C81.4307 35.0423 81.324 35.0876 81.196 35.0876H79.972ZM80.908 33.2236H81.468C81.6387 33.2236 81.756 33.1889 81.82 33.1196C81.884 33.0503 81.916 32.9276 81.916 32.7516V28.1516H80.908C80.732 28.1516 80.612 28.1863 80.548 28.2556C80.484 28.3249 80.452 28.4476 80.452 28.6236V32.7516C80.452 32.9276 80.484 33.0503 80.548 33.1196C80.612 33.1889 80.732 33.2236 80.908 33.2236Z" fill="#6ED058"/>
<path d="M70.5652 37.4876C70.4319 37.4876 70.3652 37.4209 70.3652 37.2876V26.4876C70.3652 26.3543 70.4319 26.2876 70.5652 26.2876H72.2212C72.3172 26.2876 72.4106 26.3329 72.5012 26.4236L72.9012 26.8236L73.3012 26.4236C73.3866 26.3329 73.4932 26.2876 73.6212 26.2876H74.8452C74.9679 26.2876 75.0746 26.3329 75.1652 26.4236L76.7652 28.0236C76.8559 28.1089 76.9012 28.2156 76.9012 28.3436V33.0316C76.9012 33.1596 76.8559 33.2663 76.7652 33.3516L75.1652 34.9516C75.0746 35.0423 74.9679 35.0876 74.8452 35.0876H73.6212C73.4932 35.0876 73.3866 35.0423 73.3012 34.9516L72.9012 34.5516V37.2876C72.9012 37.4209 72.8346 37.4876 72.7012 37.4876H70.5652ZM72.9012 33.2236H73.9092C74.0852 33.2236 74.2052 33.1889 74.2692 33.1196C74.3332 33.0503 74.3652 32.9276 74.3652 32.7516V28.6236C74.3652 28.4476 74.3332 28.3249 74.2692 28.2556C74.2052 28.1863 74.0852 28.1516 73.9092 28.1516H73.3492C73.1786 28.1516 73.0612 28.1863 72.9972 28.2556C72.9332 28.3249 72.9012 28.4476 72.9012 28.6236V33.2236Z" fill="#6ED058"/>
<path d="M58.9578 35.0876C58.8245 35.0876 58.7578 35.0209 58.7578 34.8876V26.4876C58.7578 26.3543 58.8245 26.2876 58.9578 26.2876H62.5978C62.7205 26.2876 62.8271 26.3329 62.9178 26.4236L63.9018 27.4076H64.1978L65.1818 26.4236C65.2725 26.3329 65.3791 26.2876 65.5018 26.2876H67.2378C67.3605 26.2876 67.4671 26.3329 67.5578 26.4236L69.1578 28.0236C69.2485 28.1089 69.2938 28.2156 69.2938 28.3436V34.8876C69.2938 35.0209 69.2271 35.0876 69.0938 35.0876H66.9578C66.8245 35.0876 66.7578 35.0209 66.7578 34.8876V28.6236C66.7578 28.3996 66.6458 28.2876 66.4218 28.2876H65.2938V34.8876C65.2938 35.0209 65.2271 35.0876 65.0938 35.0876H62.9578C62.8245 35.0876 62.7578 35.0209 62.7578 34.8876V28.6236C62.7578 28.3996 62.6458 28.2876 62.4218 28.2876H61.2938V34.8876C61.2938 35.0209 61.2271 35.0876 61.0938 35.0876H58.9578Z" fill="#6ED058"/>
<path d="M53.2142 35.0876C53.0915 35.0876 52.9849 35.0423 52.8942 34.9516L51.2942 33.3516C51.2035 33.2663 51.1582 33.1596 51.1582 33.0316V28.3436C51.1582 28.2156 51.2035 28.1089 51.2942 28.0236L52.8942 26.4236C52.9849 26.3329 53.0915 26.2876 53.2142 26.2876H57.4942C57.6275 26.2876 57.6942 26.3543 57.6942 26.4876V34.8876C57.6942 35.0209 57.6275 35.0876 57.4942 35.0876H55.8302C55.7609 35.0876 55.7075 35.0743 55.6702 35.0476C55.6382 35.0209 55.6009 34.9889 55.5582 34.9516L55.1582 34.5516L54.7582 34.9516C54.6729 35.0423 54.5662 35.0876 54.4382 35.0876H53.2142ZM54.1502 33.2236H54.7102C54.8809 33.2236 54.9982 33.1889 55.0622 33.1196C55.1262 33.0503 55.1582 32.9276 55.1582 32.7516V28.1516H54.1502C53.9742 28.1516 53.8542 28.1863 53.7902 28.2556C53.7262 28.3249 53.6942 28.4476 53.6942 28.6236V32.7516C53.6942 32.9276 53.7262 33.0503 53.7902 33.1196C53.8542 33.1889 53.9742 33.2236 54.1502 33.2236Z" fill="#6ED058"/>
<path d="M48.289 35.0876C48.1663 35.0876 48.0597 35.0529 47.969 34.9836L46.665 33.7916L45.345 32.0716C45.2863 31.9969 45.249 31.9516 45.233 31.9356C45.217 31.9143 45.209 31.8663 45.209 31.7916V27.7116C45.209 27.6369 45.217 27.5889 45.233 27.5676C45.2543 27.5463 45.2917 27.5009 45.345 27.4316L46.569 25.8476L47.969 24.5276C48.0277 24.4796 48.073 24.4503 48.105 24.4396C48.1423 24.4289 48.2037 24.4236 48.289 24.4236H50.265C50.3983 24.4236 50.465 24.4903 50.465 24.6236V25.9036C50.465 25.9463 50.4597 25.9916 50.449 26.0396C50.4437 26.0823 50.417 26.1196 50.369 26.1516L48.865 27.1836L47.881 28.4476V31.0636L48.881 32.3276L50.369 33.3516C50.4117 33.3783 50.4383 33.4103 50.449 33.4476C50.4597 33.4849 50.465 33.5249 50.465 33.5676V34.8876C50.465 35.0209 50.3983 35.0876 50.265 35.0876H48.289Z" fill="#6ED058"/>
<path d="M23.3477 0.120483L40.0572 8.10241V32.0482L23.3477 24.0663L23.3477 0.120483Z" fill="#092327"/>
<path d="M23.3471 0L6.63758 8.01205L23.3471 16.0241L40.0566 8.01205L23.3471 0Z" fill="#0B6E4F"/>
<path d="M23.3471 23.976L6.63758 31.988L23.3471 40L40.0566 31.988L23.3471 23.976Z" fill="#0B5351"/>
<path d="M16.6543 0L6.55651e-07 7.98877V31.9551L16.6543 23.9663V0Z" fill="#08A045"/>
<path d="M16.6543 0L-4.20569e-06 7.98877L16.6543 15.9775L33.3086 7.98877L16.6543 0Z" fill="#95FF80"/>
<path d="M16.6543 23.9663L-4.20569e-06 31.9551L16.6543 39.9438L33.3086 31.9551L16.6543 23.9663Z" fill="#6ED058"/>
</svg>
